# xmcd
#
# Track frame offsets:
#	150
#	14138
#	27525
#	42094
#	55713
#	70042
#	83756
#	97451
#	110798
#	125025
#	138199
#	152518
#	164641
#	177638
#	191764
#	204949
#	218748
#	230714
#	244759
#	258675
#
# Disc length: 3620 seconds
# Revision: 2
# Processed by: cddbd v1.5.2PL0 Copyright (c) Steve Scherf et al.
# Submitted via: dBpowerAMP V12.0
#
DISCID=300e2214
DTITLE=Charley Patton - Hang It On The Wall
DYEAR=2004
DGENRE=Blues
TTITLE0=Tom Rushen Blues
TTITLE1=Pony Blues
TTITLE2=Hammer Blues
TTITLE3=Pea Vine Blues
TTITLE4=Frankie And Albert
TTITLE5=High Water Everywhere pt.1
TTITLE6=High Water Everywhere pt.2
TTITLE7=Poor Me
TTITLE8=Mississippi Boweavil Blues
TTITLE9=34 Blues
TTITLE10=A Spoonful Blues
TTITLE11=Hang It On The Wall
TTITLE12=Down The Dirt Road Blues
TTITLE13=High Sheriff Blues
TTITLE14=Love My Stuff
TTITLE15=Screamin' And Hollerin' The Blues
TTITLE16=Revenue Man Blues
TTITLE17=Jersey Bull Blues
TTITLE18=Prayer Of Death pt.1
TTITLE19=Prayer Of Death pt.2
EXTD=
EXTT0=
EXTT1=
EXTT2=
EXTT3=
EXTT4=
EXTT5=
EXTT6=
EXTT7=
EXTT8=
EXTT9=
EXTT10=
EXTT11=
EXTT12=
EXTT13=
EXTT14=
EXTT15=
EXTT16=
EXTT17=
EXTT18=
EXTT19=
PLAYORDER=
